<svg version="1.1" xmlns="http://www.w3.org/2000/svg" xmlns:xlink="http://www.w3.org/1999/xlink" width="620" height="636"><defs/><g><g transform="translate(-78,-6) scale(1,1)"><path fill="none" stroke="#000000" d="M 88 16 L 688 16 L 688 632 L 88 632 L 88 16" stroke-miterlimit="10"/></g><g transform="translate(-78,-6) scale(1,1)"><path fill="#ffffff" stroke="none" d="M 88 16 L 88 38 L 221.076171875 38 L 232.076171875 27 L 232.076171875 16 L 88 16"/></g><g transform="translate(-78,-6) scale(1,1)"><path fill="none" stroke="#000000" d="M 88 16 L 88 38 L 221.076171875 38 L 232.076171875 27 L 232.076171875 16 L 88 16 L 88 16" stroke-miterlimit="10"/></g><g transform="translate(-78,-6) scale(1,1)"><g><path fill="none" stroke="none"/><text fill="#000000" stroke="none" font-family="Arial" font-size="13px" font-style="normal" font-weight="normal" text-decoration="none" x="158.97900390625" y="33.5">qemu_aio</text></g></g><g transform="translate(-78,-6) scale(1,1)"><g><path fill="none" stroke="none"/><text fill="#000000" stroke="none" font-family="Arial" font-size="13px" font-style="normal" font-weight="bold" text-decoration="none" x="93" y="33.5">interaction</text></g></g><g transform="translate(-78,-6) scale(1,1)"><rect fill="#C0C0C0" stroke="none" x="135" y="47" width="76.7763671875" height="39" opacity="0.2"/></g><g transform="translate(-78,-6) scale(1,1)"><rect fill="#ffff91" stroke="none" x="128" y="40" width="76.7763671875" height="39"/></g><g transform="translate(-78,-6) scale(1,1)"><path fill="none" stroke="#000000" d="M 128 40 L 204.7763671875 40 L 204.7763671875 79 L 128 79 L 128 40 Z Z" stroke-miterlimit="10"/></g><g transform="translate(-78,-6) scale(1,1)"><g><path fill="none" stroke="none"/><text fill="#000000" stroke="none" font-family="Arial" font-size="13px" font-style="normal" font-weight="bold" text-decoration="none" x="140.010498046875" y="59.5">mainloop</text></g></g><g transform="translate(-78,-6) scale(1,1)"><path fill="none" stroke="#000000" d="M 167.5 80 L 167.5 576" stroke-miterlimit="10" stroke-dasharray="3"/></g><g transform="translate(-78,-6) scale(1,1)"><rect fill="#C0C0C0" stroke="none" x="311" y="47" width="146.84814453125" height="39" opacity="0.2"/></g><g transform="translate(-78,-6) scale(1,1)"><rect fill="#ffff91" stroke="none" x="304" y="40" width="146.84814453125" height="39"/></g><g transform="translate(-78,-6) scale(1,1)"><path fill="none" stroke="#000000" d="M 304 40 L 450.84814453125 40 L 450.84814453125 79 L 304 79 L 304 40 Z Z" stroke-miterlimit="10"/></g><g transform="translate(-78,-6) scale(1,1)"><g><path fill="none" stroke="none"/><text fill="#000000" stroke="none" font-family="Arial" font-size="13px" font-style="normal" font-weight="bold" text-decoration="none" x="319.2509765625" y="59.5">coroutine_submit_io</text></g></g><g transform="translate(-78,-6) scale(1,1)"><path fill="none" stroke="#000000" d="M 378.5 80 L 378.5 584" stroke-miterlimit="10" stroke-dasharray="3"/></g><g transform="translate(-78,-6) scale(1,1)"><rect fill="#C0C0C0" stroke="none" x="559" y="47" width="88" height="39" opacity="0.2"/></g><g transform="translate(-78,-6) scale(1,1)"><rect fill="#ffff91" stroke="none" x="552" y="40" width="88" height="39"/></g><g transform="translate(-78,-6) scale(1,1)"><path fill="none" stroke="#000000" d="M 552 40 L 640 40 L 640 79 L 552 79 L 552 40 Z Z" stroke-miterlimit="10"/></g><g transform="translate(-78,-6) scale(1,1)"><g><path fill="none" stroke="none"/><text fill="#000000" stroke="none" font-family="Arial" font-size="13px" font-style="normal" font-weight="bold" text-decoration="none" x="568.8955078125" y="59.5">io_thread</text></g></g><g transform="translate(-78,-6) scale(1,1)"><path fill="none" stroke="#000000" d="M 597.5 80 L 597.5 584" stroke-miterlimit="10" stroke-dasharray="3"/></g><g transform="translate(-78,-6) scale(1,1)"><path fill="none" stroke="#000000" d="M 167 100 L 197 100 L 197 120 L 173 120" stroke-miterlimit="10"/></g><g transform="translate(-78,-6) scale(1,1)"><path fill="#000000" stroke="none" d="M 183.16267485762415 115.79048224398402 L 173 120 L 183.16267485762415 124.20951775601598"/></g><g transform="translate(-78,-6) scale(1,1)"><path fill="none" stroke="#000000" d="M 183.16267485762415 115.79048224398402 L 173 120 L 183.16267485762415 124.20951775601598 L 183.16267485762415 115.79048224398402" stroke-miterlimit="10"/></g><g transform="translate(-78,-6) scale(1,1)"><g><path fill="none" stroke="none"/><text fill="#000000" stroke="none" font-family="Arial" font-size="13px" font-style="normal" font-weight="normal" text-decoration="none" x="198.49422454833984" y="116.5">1 : aio_ctx_prepare</text></g></g><g transform="translate(-78,-6) scale(1,1)"><rect fill="#ffa182" stroke="none" x="160" y="120" width="13" height="28"/></g><g transform="translate(-78,-6) scale(1,1)"><path fill="none" stroke="#000000" d="M 160 120 L 173 120 L 173 148 L 160 148 L 160 120 Z Z" stroke-miterlimit="10"/></g><g transform="translate(-78,-6) scale(1,1)"><path fill="none" stroke="#000000" d="M 167 168 L 197 168 L 197 188 L 173 188" stroke-miterlimit="10"/></g><g transform="translate(-78,-6) scale(1,1)"><path fill="#000000" stroke="none" d="M 183.16267485762415 183.790482243984 L 173 188 L 183.16267485762415 192.209517756016"/></g><g transform="translate(-78,-6) scale(1,1)"><path fill="none" stroke="#000000" d="M 183.16267485762415 183.790482243984 L 173 188 L 183.16267485762415 192.209517756016 L 183.16267485762415 183.790482243984" stroke-miterlimit="10"/></g><g transform="translate(-78,-6) scale(1,1)"><g><path fill="none" stroke="none"/><text fill="#000000" stroke="none" font-family="Arial" font-size="13px" font-style="normal" font-weight="normal" text-decoration="none" x="199.64258575439453" y="183.5">2 : qemu_poll_ns</text></g></g><g transform="translate(-78,-6) scale(1,1)"><rect fill="#ff82c0" stroke="none" x="160" y="188" width="13" height="28"/></g><g transform="translate(-78,-6) scale(1,1)"><path fill="none" stroke="#000000" d="M 160 188 L 173 188 L 173 216 L 160 216 L 160 188 Z Z" stroke-miterlimit="10"/></g><g transform="translate(-78,-6) scale(1,1)"><path fill="none" stroke="#000000" d="M 167 232 L 197 232 L 197 252 L 173 252" stroke-miterlimit="10"/></g><g transform="translate(-78,-6) scale(1,1)"><path fill="#000000" stroke="none" d="M 183.16267485762415 247.790482243984 L 173 252 L 183.16267485762415 256.209517756016"/></g><g transform="translate(-78,-6) scale(1,1)"><path fill="none" stroke="#000000" d="M 183.16267485762415 247.790482243984 L 173 252 L 183.16267485762415 256.209517756016 L 183.16267485762415 247.790482243984" stroke-miterlimit="10"/></g><g transform="translate(-78,-6) scale(1,1)"><g><path fill="none" stroke="none"/><text fill="#000000" stroke="none" font-family="Arial" font-size="13px" font-style="normal" font-weight="normal" text-decoration="none" x="198.77129364013672" y="244.5">3 : aio_ctx_check</text></g></g><g transform="translate(-78,-6) scale(1,1)"><rect fill="#ff8282" stroke="none" x="160" y="252" width="13" height="28"/></g><g transform="translate(-78,-6) scale(1,1)"><path fill="none" stroke="#000000" d="M 160 252 L 173 252 L 173 280 L 160 280 L 160 252 Z Z" stroke-miterlimit="10"/></g><g transform="translate(-78,-6) scale(1,1)"><path fill="none" stroke="#000000" d="M 167 304 L 197 304 L 197 324 L 173 324" stroke-miterlimit="10"/></g><g transform="translate(-78,-6) scale(1,1)"><path fill="#000000" stroke="none" d="M 183.16267485762415 319.790482243984 L 173 324 L 183.16267485762415 328.209517756016"/></g><g transform="translate(-78,-6) scale(1,1)"><path fill="none" stroke="#000000" d="M 183.16267485762415 319.790482243984 L 173 324 L 183.16267485762415 328.209517756016 L 183.16267485762415 319.790482243984" stroke-miterlimit="10"/></g><g transform="translate(-78,-6) scale(1,1)"><g><path fill="none" stroke="none"/><text fill="#000000" stroke="none" font-family="Arial" font-size="13px" font-style="normal" font-weight="normal" text-decoration="none" x="198.44529724121094" y="319.5">4 : aio_ctx_dispatch</text></g></g><g transform="translate(-78,-6) scale(1,1)"><rect fill="#ffa182" stroke="none" x="160" y="324" width="13" height="28"/></g><g transform="translate(-78,-6) scale(1,1)"><path fill="none" stroke="#000000" d="M 160 324 L 173 324 L 173 352 L 160 352 L 160 324 Z Z" stroke-miterlimit="10"/></g><g transform="translate(-78,-6) scale(1,1)"><path fill="none" stroke="#000000" d="M 167 376 L 371 376" stroke-miterlimit="10"/></g><g transform="translate(-78,-6) scale(1,1)"><path fill="#000000" stroke="none" d="M 360.83732514237585 380.209517756016 L 371 376 L 360.83732514237585 371.790482243984"/></g><g transform="translate(-78,-6) scale(1,1)"><path fill="none" stroke="#000000" d="M 360.83732514237585 380.209517756016 L 371 376 L 360.83732514237585 371.790482243984 L 360.83732514237585 380.209517756016" stroke-miterlimit="10"/></g><g transform="translate(-78,-6) scale(1,1)"><g><path fill="none" stroke="none"/><text fill="#000000" stroke="none" font-family="Arial" font-size="13px" font-style="normal" font-weight="normal" text-decoration="none" x="195.4087905883789" y="372.5">5 : qemu_coroutine_enter</text></g></g><g transform="translate(-78,-6) scale(1,1)"><rect fill="#00ff7f" stroke="none" x="371" y="376" width="13" height="28"/></g><g transform="translate(-78,-6) scale(1,1)"><path fill="none" stroke="#000000" d="M 371 376 L 384 376 L 384 404 L 371 404 L 371 376 Z Z" stroke-miterlimit="10"/></g><g transform="translate(-78,-6) scale(1,1)"><path fill="none" stroke="#000000" d="M 378 432 L 590 432" stroke-miterlimit="10"/></g><g transform="translate(-78,-6) scale(1,1)"><path fill="#000000" stroke="none" d="M 579.8373251423759 436.209517756016 L 590 432 L 579.8373251423758 427.790482243984"/></g><g transform="translate(-78,-6) scale(1,1)"><path fill="none" stroke="#000000" d="M 579.8373251423759 436.209517756016 L 590 432 L 579.8373251423758 427.790482243984 L 579.8373251423759 436.209517756016" stroke-miterlimit="10"/></g><g transform="translate(-78,-6) scale(1,1)"><g><path fill="none" stroke="none"/><text fill="#000000" stroke="none" font-family="Arial" font-size="13px" font-style="normal" font-weight="normal" text-decoration="none" x="412.48880767822266" y="428.5">6 : submit_io_to_threads</text></g></g><g transform="translate(-78,-6) scale(1,1)"><rect fill="#00967d" stroke="none" x="590" y="432" width="13" height="28"/></g><g transform="translate(-78,-6) scale(1,1)"><path fill="none" stroke="#000000" d="M 590 432 L 603 432 L 603 460 L 590 460 L 590 432 Z Z" stroke-miterlimit="10"/></g><g transform="translate(-78,-6) scale(1,1)"><path fill="none" stroke="#000000" d="M 378 456 L 173 456" stroke-miterlimit="10"/></g><g transform="translate(-78,-6) scale(1,1)"><path fill="#000000" stroke="none" d="M 183.16267485762415 451.790482243984 L 173 456 L 183.16267485762415 460.209517756016"/></g><g transform="translate(-78,-6) scale(1,1)"><path fill="none" stroke="#000000" d="M 183.16267485762415 451.790482243984 L 173 456 L 183.16267485762415 460.209517756016 L 183.16267485762415 451.790482243984" stroke-miterlimit="10"/></g><g transform="translate(-78,-6) scale(1,1)"><g><path fill="none" stroke="none"/><text fill="#000000" stroke="none" font-family="Arial" font-size="13px" font-style="normal" font-weight="normal" text-decoration="none" x="199.81505584716797" y="451.5">7 : qemu_coroutine_yield</text></g></g><g transform="translate(-78,-6) scale(1,1)"><rect fill="#ff2b2b" stroke="none" x="160" y="456" width="13" height="28"/></g><g transform="translate(-78,-6) scale(1,1)"><path fill="none" stroke="#000000" d="M 160 456 L 173 456 L 173 484 L 160 484 L 160 456 Z Z" stroke-miterlimit="10"/></g><g transform="translate(-78,-6) scale(1,1)"><path fill="none" stroke="#000000" d="M 378 512 L 173 512" stroke-miterlimit="10"/></g><g transform="translate(-78,-6) scale(1,1)"><path fill="#000000" stroke="none" d="M 183.16267485762415 507.790482243984 L 173 512 L 183.16267485762415 516.209517756016"/></g><g transform="translate(-78,-6) scale(1,1)"><path fill="none" stroke="#000000" d="M 183.16267485762415 507.790482243984 L 173 512 L 183.16267485762415 516.209517756016 L 183.16267485762415 507.790482243984" stroke-miterlimit="10"/></g><g transform="translate(-78,-6) scale(1,1)"><g><path fill="none" stroke="none"/><text fill="#000000" stroke="none" font-family="Arial" font-size="13px" font-style="normal" font-weight="normal" text-decoration="none" x="207.85420989990234" y="528.5">8 : qemu_bh_schedule</text></g></g><g transform="translate(-78,-6) scale(1,1)"><rect fill="#2b2bff" stroke="none" x="160" y="512" width="13" height="28"/></g><g transform="translate(-78,-6) scale(1,1)"><path fill="none" stroke="#000000" d="M 160 512 L 173 512 L 173 540 L 160 540 L 160 512 Z Z" stroke-miterlimit="10"/></g></g></svg>